<svg width="35" height="35" viewBox="0 0 35 35" fill="none" xmlns="http://www.w3.org/2000/svg">
<path d="M17.5 35C27.165 35 35 27.165 35 17.5C35 7.83502 27.165 0 17.5 0C7.83502 0 0 7.83502 0 17.5C0 27.165 7.83502 35 17.5 35Z" fill="#6C27B3"/>
<path d="M25.6149 9.08645C23.524 9.35114 21.3439 9.34191 19.1498 9.133C16.0858 8.8973 11.6078 7.48315 9.9579 10.3115C7.30747 14.8393 8.6147 20.6361 9.23233 25.766L18.4429 34.9746C27.3561 34.5013 34.4995 27.3588 34.9743 18.4459L25.6149 9.08645Z" fill="#501A96"/>
<path d="M21.5487 7.48315H13.4512C10.1604 7.48315 7.48315 10.1604 7.48315 13.4512V21.5487C7.48315 24.8394 10.1604 27.5168 13.4513 27.5168H21.5488C24.8394 27.5168 27.5169 24.8395 27.5169 21.5487V13.4512C27.5168 10.1604 24.8395 7.48315 21.5487 7.48315ZM25.5014 21.5488C25.5014 23.7318 23.7318 25.5015 21.5488 25.5015H13.4513C11.2683 25.5015 9.49859 23.7318 9.49859 21.5488V13.4513C9.49859 11.2683 11.2683 9.49852 13.4513 9.49852H21.5488C23.7318 9.49852 25.5014 11.2683 25.5014 13.4513V21.5488Z" fill="white"/>
<path d="M17.5 12.3185C14.643 12.3185 12.3185 14.643 12.3185 17.5C12.3185 20.3568 14.643 22.6813 17.5 22.6813C20.357 22.6813 22.6813 20.357 22.6813 17.5C22.6813 14.643 20.357 12.3185 17.5 12.3185ZM17.5 20.6659C15.7514 20.6659 14.3339 19.2486 14.3339 17.5C14.3339 15.7514 15.7514 14.3339 17.5 14.3339C19.2485 14.3339 20.6659 15.7513 20.6659 17.5C20.6659 19.2485 19.2485 20.6659 17.5 20.6659Z" fill="white"/>
<path d="M23.9328 12.3576C23.9328 13.0432 23.3769 13.5992 22.6912 13.5992C22.0056 13.5992 21.4496 13.0432 21.4496 12.3576C21.4496 11.6719 22.0056 11.116 22.6912 11.116C23.377 11.116 23.9328 11.6717 23.9328 12.3576Z" fill="#D1D1D1"/>
<path d="M21.5488 7.48315H17.4608V9.49852H21.5488C23.7318 9.49852 25.5015 11.2683 25.5015 13.4513V21.5488C25.5015 23.7318 23.7318 25.5015 21.5488 25.5015H17.4608V27.5168H21.5488C24.8395 27.5168 27.5168 24.8395 27.5168 21.5487V13.4512C27.5168 10.1604 24.8395 7.48315 21.5488 7.48315Z" fill="#D1D1D1"/>
<path d="M17.5 12.3185C17.4868 12.3185 17.4739 12.3194 17.4608 12.3194V14.3348C17.4738 14.3347 17.4868 14.3339 17.5 14.3339C19.2486 14.3339 20.6659 15.7513 20.6659 17.5C20.6659 19.2485 19.2486 20.6659 17.5 20.6659C17.4868 20.6659 17.4738 20.6651 17.4608 20.665V22.6803C17.4739 22.6805 17.4868 22.6813 17.5 22.6813C20.357 22.6813 22.6813 20.3569 22.6813 17.5C22.6813 14.643 20.357 12.3185 17.5 12.3185Z" fill="#D1D1D1"/>
</svg>
