<svg width="66" height="66" viewBox="0 0 66 66" fill="none" xmlns="http://www.w3.org/2000/svg">
<path d="M32.8922 65.9322C23.9826 65.9322 16.3034 62.7078 9.85462 56.259C3.40581 49.8101 0.181402 42.131 0.181403 33.2214C0.223829 24.2694 3.44824 16.5903 9.85462 10.1839C16.261 3.77748 23.919 0.57429 32.8285 0.574292C41.7805 0.531865 49.4809 3.73506 55.9297 10.1839C62.3785 16.6327 65.5817 24.3331 65.5393 33.2851C65.5393 42.1946 62.3361 49.8526 55.9297 56.259C49.5233 62.6653 41.8441 65.8897 32.8922 65.9322ZM6.35444 33.2851C6.31202 40.4551 8.92124 46.6706 14.1821 51.9315C19.443 57.1923 25.6585 59.8016 32.8285 59.7591C40.041 59.6743 46.2565 57.0226 51.4749 51.8042C56.6934 46.5857 59.3238 40.3915 59.3662 33.2214C59.4511 26.0089 56.8631 19.7722 51.6022 14.5114C46.3413 9.25049 40.1047 6.66248 32.8922 6.74733C25.7221 6.78976 19.5278 9.4202 14.3094 14.6386C9.09095 19.8571 6.4393 26.0726 6.35444 33.2851Z" fill="#61A8B9"/>
</svg>
