<svg width="106" height="106" viewBox="0 0 106 106" fill="none" xmlns="http://www.w3.org/2000/svg">
<g filter="url(#filter0_d)">
<path d="M50.8922 79.7099C41.9826 79.7099 34.3034 76.4855 27.8546 70.0367C21.4058 63.5878 18.1814 55.9087 18.1814 46.9991C18.2238 38.0471 21.4482 30.368 27.8546 23.9616C34.261 17.5552 41.919 14.352 50.8285 14.352C59.7805 14.3096 67.4809 17.5128 73.9297 23.9616C80.3785 30.4104 83.5817 38.1108 83.5393 47.0628C83.5393 55.9723 80.3361 63.6303 73.9297 70.0367C67.5233 76.443 59.8441 79.6675 50.8922 79.7099ZM24.3544 47.0628C24.312 54.2328 26.9212 60.4483 32.1821 65.7092C37.443 70.97 43.6585 73.5793 50.8285 73.5368C58.041 73.452 64.2565 70.8003 69.4749 65.5819C74.6934 60.3634 77.3238 54.1692 77.3662 46.9991C77.4511 39.7866 74.8631 33.5499 69.6022 28.2891C64.3413 23.0282 58.1047 20.4402 50.8922 20.525C43.7221 20.5675 37.5278 23.1979 32.3094 28.4164C27.0909 33.6348 24.4393 39.8503 24.3544 47.0628Z" fill="#B94044"/>
</g>
<defs>
<filter id="filter0_d" x="0.181396" y="0.351562" width="105.358" height="105.358" filterUnits="userSpaceOnUse" color-interpolation-filters="sRGB">
<feFlood flood-opacity="0" result="BackgroundImageFix"/>
<feColorMatrix in="SourceAlpha" type="matrix" values="0 0 0 0 0 0 0 0 0 0 0 0 0 0 0 0 0 0 127 0"/>
<feOffset dx="2" dy="6"/>
<feGaussianBlur stdDeviation="10"/>
<feColorMatrix type="matrix" values="0 0 0 0 0.435294 0 0 0 0 0.231373 0 0 0 0 0.921569 0 0 0 0.4 0"/>
<feBlend mode="normal" in2="BackgroundImageFix" result="effect1_dropShadow"/>
<feBlend mode="normal" in="SourceGraphic" in2="effect1_dropShadow" result="shape"/>
</filter>
</defs>
</svg>
