<svg width="35" height="35" viewBox="0 0 35 35" fill="none" xmlns="http://www.w3.org/2000/svg">
<g clip-path="url(#clip0)">
<path d="M17.4998 34.9998C27.1647 34.9998 34.9996 27.1649 34.9996 17.5C34.9996 7.83514 27.1647 0.000213623 17.4998 0.000213623C7.83492 0.000213623 0 7.83514 0 17.5C0 27.1649 7.83492 34.9998 17.4998 34.9998Z" fill="#41B4E6"/>
<path d="M35 17.5002C35 17.0738 34.9839 16.6513 34.954 16.2324L27.7011 8.97971L7.29886 17.005L15.1049 24.8111L15.2073 25.1797L15.3398 25.0461L15.3404 25.0466L15.2073 25.1797L23.8422 33.8147C30.3719 31.2744 35 24.9282 35 17.5002Z" fill="#0091C8"/>
<path d="M15.8004 20.0498L23.709 26.0208L27.7011 8.97971L7.2988 17.005L13.507 19.0614L24.8371 11.4614L15.8004 20.0498Z" fill="white"/>
<path d="M13.507 19.0613L15.2073 25.1798L15.8004 20.0498L24.8371 11.4614L13.507 19.0613Z" fill="#D2D2D7"/>
<path d="M18.3708 21.9904L15.2073 25.1798L15.8005 20.0498L18.3708 21.9904Z" fill="#B9B9BE"/>
</g>
<defs>
<clipPath id="clip0">
<rect width="35" height="35" fill="white"/>
</clipPath>
</defs>
</svg>
